<svg xmlns="http://www.w3.org/2000/svg" viewBox="0 0 1024.00 1024.00" width="1024" height="1024" role="img" aria-label="Certa"><title>Certa</title><rect width="1024" height="1024" rx="230" fill="#2b2b2e"/><path fill="#ffffff" fill-rule="evenodd" transform="translate(194.56 194.56) scale(9.92000) translate(0 3.6)" d="M27.02 53.62 L26.98 53.70 L26.95 53.78 L26.92 53.86 L26.90 53.95 L26.89 54.03 L26.89 54.12 L26.89 54.21 L26.91 54.29 L26.93 54.38 L26.96 54.46 L27.00 54.54 L27.05 54.61 L27.10 54.68 L27.16 54.74 L27.22 54.80 L27.29 54.85 L27.37 54.90 L27.45 54.93 L27.53 54.96 L27.61 54.98 L27.70 55.00 L27.79 55.00 L58.46 55.00 L58.55 55.00 L58.64 54.98 L58.73 54.96 L58.81 54.93 L58.89 54.89 L58.97 54.85 L59.04 54.79 L59.11 54.73 L59.16 54.67 L59.22 54.59 L59.26 54.52 L59.30 54.44 L59.33 54.35 L59.35 54.26 L59.36 54.18 L59.36 54.09 L59.36 54.00 L59.34 53.91 L59.32 53.82 L59.29 53.74 L59.25 53.66 L44.75 27.77 L44.70 27.69 L44.65 27.62 L44.59 27.56 L44.52 27.50 L44.45 27.45 L44.37 27.41 L44.29 27.37 L44.21 27.34 L44.12 27.32 L44.03 27.31 L43.94 27.31 L43.85 27.32 L43.77 27.33 L43.68 27.36 L43.60 27.39 L43.52 27.43 L43.44 27.48 L43.38 27.53 L43.31 27.59 L43.25 27.66 L43.20 27.73 Z M32.79 6.40 L32.74 6.33 L32.69 6.26 L32.63 6.20 L32.56 6.14 L32.49 6.09 L32.42 6.04 L32.34 6.01 L32.26 5.98 L32.17 5.96 L32.09 5.95 L32.00 5.94 L31.91 5.95 L31.83 5.96 L31.74 5.98 L31.66 6.01 L31.58 6.04 L31.51 6.09 L31.44 6.14 L31.37 6.20 L31.31 6.26 L31.26 6.33 L31.21 6.40 L15.09 35.19 L15.05 35.27 L15.02 35.36 L15.00 35.45 L14.98 35.53 L14.98 35.62 L14.98 35.71 L14.99 35.80 L15.01 35.89 L15.04 35.97 L15.08 36.05 L15.13 36.13 L15.18 36.20 L15.24 36.27 L25.32 46.35 L25.38 46.41 L25.46 46.46 L25.53 46.51 L25.62 46.55 L25.70 46.58 L25.79 46.60 L25.88 46.61 L25.97 46.61 L26.06 46.61 L26.14 46.59 L26.23 46.57 L26.32 46.54 L26.40 46.50 L26.47 46.45 L26.54 46.39 L26.61 46.33 L26.67 46.26 L26.72 46.19 L41.39 22.72 L41.43 22.64 L41.46 22.56 L41.49 22.48 L41.51 22.39 L41.52 22.30 L41.52 22.22 L41.52 22.13 L41.50 22.04 L41.48 21.96 L41.45 21.88 L41.41 21.80 Z M4.75 53.66 L4.71 53.74 L4.68 53.82 L4.66 53.91 L4.64 54.00 L4.64 54.09 L4.64 54.18 L4.65 54.26 L4.67 54.35 L4.70 54.44 L4.74 54.52 L4.78 54.59 L4.84 54.67 L4.89 54.73 L4.96 54.79 L5.03 54.85 L5.11 54.89 L5.19 54.93 L5.27 54.96 L5.36 54.98 L5.45 55.00 L5.54 55.00 L25.86 55.00 L25.95 55.00 L26.03 54.98 L26.12 54.96 L26.20 54.93 L26.28 54.89 L26.36 54.85 L26.43 54.80 L26.49 54.74 L26.55 54.67 L26.61 54.60 L26.65 54.52 L26.69 54.44 L26.72 54.36 L26.74 54.28 L26.75 54.19 L26.76 54.10 L26.75 54.01 L26.74 53.92 L26.72 53.84 L26.69 53.76 L26.65 53.68 L26.61 53.60 L26.55 53.53 L26.49 53.46 L13.47 40.44 L13.40 40.38 L13.33 40.33 L13.26 40.28 L13.18 40.24 L13.10 40.21 L13.01 40.19 L12.93 40.18 L12.84 40.17 L12.75 40.18 L12.66 40.19 L12.58 40.21 L12.50 40.24 L12.42 40.27 L12.34 40.32 L12.27 40.37 L12.20 40.43 L12.14 40.49 L12.09 40.56 L12.05 40.63 Z"/></svg>
